<?xml version="1.0" encoding="UTF-8"?><svg id="Layer_1" xmlns="http://www.w3.org/2000/svg" xmlns:xlink="http://www.w3.org/1999/xlink" viewBox="0 0 188.685721 255.346045"><defs><style>.cls-1{fill:#f8961d;}.cls-1,.cls-2,.cls-3{fill-rule:evenodd;}.cls-2{fill:#fbe200;}.cls-4,.cls-5{fill:#fff;}.cls-5{stroke:#f9f399;stroke-miterlimit:10;stroke-width:8px;}.cls-3{fill:url(#linear-gradient);}</style><linearGradient id="linear-gradient" x1="-276.257142" y1="436.436625" x2="-276.257142" y2="517.828175" gradientTransform="translate(961.031947 1624.559008) scale(3.137255 -3.137255)" gradientUnits="userSpaceOnUse"><stop offset="0" stop-color="#f05023"/><stop offset="1" stop-color="#f8961d"/></linearGradient></defs><g id="fire"><path id="path-1" class="cls-3" d="M188.289511,165.156033c-2.100364,50.16301-43.415024,90.190012-94.094119,90.190012C42.172515,255.346045.000066,211.755654.000066,161.150718.000066,154.386692-.121185,140.868671,10.020846,118.061367c6.069585-13.649298,9.876481-22.224078,12.024935-30.062338,1.180447-4.307929,3.476208-11.152123,10.020779,0,3.859004,6.57564,4.008312,16.033247,4.008312,16.033247,0,0,14.357772-11.017842,24.049871-32.066494,14.208464-30.856981,2.871957-49.302232-1.002078-62.128828-1.340782-4.437202-2.182527-12.411738,7.014546-9.018702,9.37143,3.458171,34.146804,20.801134,47.097663,39.08104,18.483335,26.089099,25.051948,51.105971,25.051948,51.105971,0,0,5.918278-7.345225,8.016624-15.031169,2.36992-8.678993,2.404981-17.274816,10.01977-8.015614,7.242022,8.805254,17.997327,25.352567,24.05088,41.084186,10.991787,28.568243,7.915416,56.113368,7.915416,56.113368Z"/><path id="path-2" class="cls-1" d="M94.195392,255.346045c-35.973594,0-65.135066-29.161468-65.135066-65.135066,0-21.706006,8.747138-34.884334,26.951888-52.755391,11.656171-11.442727,22.565794-25.496871,27.202408-35.066719.912896-1.883904,2.990202-11.701258,10.999807-.206422,4.201714,6.0285,10.788378,16.749729,15.012132,25.899699,7.281097,15.775709,9.018701,31.064416,9.018701,31.064416,0,0,7.135799-4.204718,12.024935-15.031169,1.576267-3.48923,4.762882-16.698621,13.671355-3.491233,6.536549,9.692095,15.516168,27.11823,15.388906,49.586818,0,35.973598-29.162477,65.135066-65.135066,65.135066Z"/><path id="path-3" class="cls-2" d="M95.19747,184.198511c9.269221,0,9.269221,17.164591,21.043637,40.083118,7.840255,15.260649-3.887058,31.064416-21.043637,31.064416s-26.054026-13.907838-26.054026-31.064416c0-17.155569,16.784805-40.083118,26.054026-40.083118Z"/></g><path d="M169.212682,145.330079s4.607345,64.822319-74.869822,24.32668c40.495639-79.477167,74.869822-24.32668,74.869822-24.32668Z"/><path d="M140.614955,233.344833s-60.225941,24.413044-46.272095-63.688074c88.101118,13.953846,46.272095,63.688074,46.272095,63.688074Z"/><path d="M48.070766,233.344833s-41.829023-49.734228,46.272095-63.688074c13.953846,88.101118-46.272095,63.688074-46.272095,63.688074Z"/><path d="M19.473039,145.330079s34.374183-55.150487,74.869822,24.32668c-79.477167,40.495639-74.869822-24.32668-74.869822-24.32668Z"/><path d="M94.34286,90.93397s63.073437,15.649353,0,78.722789c-63.073437-63.073437,0-78.722789,0-78.722789Z"/><polygon class="cls-4" points="67.606015 133.047714 92.038026 171.522386 96.647695 168.173265 67.606015 133.047714"/><polygon class="cls-4" points="121.079706 133.047714 92.038026 168.173265 96.647695 171.522386 121.079706 133.047714"/><polygon class="cls-4" points="137.603986 183.904217 95.223229 167.13833 93.462492 172.557321 137.603986 183.904217"/><polygon class="cls-4" points="94.34286 215.335264 97.191793 169.847825 91.493928 169.847825 94.34286 215.335264"/><polygon class="cls-4" points="51.081735 183.904217 95.223229 172.557321 93.462492 167.13833 51.081735 183.904217"/><polygon class="cls-4" points="51.108089 155.117106 92.8779 173.351864 94.826687 167.997624 51.108089 155.117106"/><polygon class="cls-4" points="95.439801 125.215015 91.005097 170.575317 96.69949 170.774171 95.439801 125.215015"/><polygon class="cls-4" points="137.577632 158.136724 93.067023 167.936174 94.637565 173.413314 137.577632 158.136724"/><polygon class="cls-4" points="119.288531 208.38555 96.214166 169.081642 91.490421 172.267846 119.288531 208.38555"/><polygon class="cls-4" points="65.847415 206.519324 96.097282 172.428723 91.607305 168.920765 65.847415 206.519324"/><circle class="cls-5" cx="94.34286" cy="170.318476" r="16.348516"/></svg>