<?xml version="1.0" encoding="UTF-8"?><svg id="Layer_3" xmlns="http://www.w3.org/2000/svg" xmlns:xlink="http://www.w3.org/1999/xlink" viewBox="0 0 295.28988 282.108444"><defs><style>.cls-1{fill:url(#linear-gradient-61);}.cls-2{fill:url(#linear-gradient-15);}.cls-3{fill:url(#linear-gradient-13);}.cls-4{fill:url(#linear-gradient-28);}.cls-5{fill:url(#linear-gradient-65);}.cls-6{fill:#d1b32b;opacity:.5;}.cls-7{fill:url(#linear-gradient-53);}.cls-8{fill:url(#linear-gradient-42);}.cls-9{fill:url(#linear-gradient-46);}.cls-10{fill:url(#linear-gradient-60);}.cls-11{fill:url(#linear-gradient-2);}.cls-12{fill:url(#linear-gradient-64);}.cls-13{fill:url(#linear-gradient-56);}.cls-14{fill:url(#linear-gradient-43);}.cls-15{fill:url(#linear-gradient-25);}.cls-16{fill:url(#linear-gradient-10);}.cls-17{fill:url(#linear-gradient-12);}.cls-18{fill:url(#linear-gradient-40);}.cls-19{fill:url(#linear-gradient-27);}.cls-20{fill:url(#linear-gradient-37);}.cls-21{fill:url(#linear-gradient-55);}.cls-22{fill:url(#linear-gradient-39);}.cls-23{fill:url(#linear-gradient-52);}.cls-24{fill:url(#linear-gradient-58);}.cls-25{fill:url(#linear-gradient-47);}.cls-26{fill:url(#linear-gradient-26);}.cls-27{fill:url(#linear-gradient-4);}.cls-28{fill:url(#linear-gradient-35);}.cls-29{fill:url(#linear-gradient-30);}.cls-30{fill:url(#linear-gradient-44);}.cls-31{fill:url(#linear-gradient-49);}.cls-32{fill:url(#linear-gradient-3);}.cls-33{fill:url(#linear-gradient-34);}.cls-34{fill:url(#linear-gradient-5);}.cls-35{fill:url(#linear-gradient-38);}.cls-36{fill:url(#linear-gradient-22);}.cls-37{fill:url(#linear-gradient-24);}.cls-38{fill:url(#linear-gradient-54);}.cls-39{fill:url(#linear-gradient-33);}.cls-40{fill:url(#linear-gradient-51);}.cls-41{fill:url(#linear-gradient-8);}.cls-42{fill:url(#linear-gradient-66);}.cls-43{fill:url(#linear-gradient-57);}.cls-44{fill:url(#linear-gradient-14);}.cls-45{fill:url(#linear-gradient-62);}.cls-46{fill:url(#linear-gradient-29);}.cls-47{fill:url(#linear-gradient-20);}.cls-48{fill:url(#linear-gradient-17);}.cls-49{fill:url(#linear-gradient-50);}.cls-50{fill:url(#linear-gradient-7);}.cls-51{fill:url(#linear-gradient-9);}.cls-52{fill:url(#linear-gradient-59);}.cls-53{fill:url(#linear-gradient-11);}.cls-54{fill:url(#linear-gradient-19);}.cls-55{fill:url(#linear-gradient-6);}.cls-56{fill:url(#linear-gradient-36);}.cls-57{fill:url(#linear-gradient-21);}.cls-58{fill:url(#linear-gradient-45);}.cls-59{fill:url(#linear-gradient-48);}.cls-60{fill:url(#linear-gradient-32);}.cls-61{fill:url(#linear-gradient-41);}.cls-62{fill:url(#linear-gradient-16);}.cls-63{fill:url(#linear-gradient);}.cls-64{fill:url(#linear-gradient-23);}.cls-65{fill:url(#linear-gradient-31);}.cls-66{fill:url(#linear-gradient-63);}.cls-67{fill:url(#linear-gradient-18);}</style><linearGradient id="linear-gradient" x1="124.834198" y1="239.890476" x2="124.834198" y2="158.8692" gradientTransform="translate(-91.056131 341.475396) rotate(-90) scale(1.61051)" gradientUnits="userSpaceOnUse"><stop offset="0" stop-color="#c1e8fb"/><stop offset=".02144" stop-color="#c1dff6"/><stop offset=".165476" stop-color="#c5a8da"/><stop offset=".310819" stop-color="#c97ac2"/><stop offset=".454587" stop-color="#cc53ae"/><stop offset=".596454" stop-color="#ce369f"/><stop offset=".7359" stop-color="#d02194"/><stop offset=".871733" stop-color="#d1148e"/><stop offset="1" stop-color="#d2108c"/></linearGradient><linearGradient id="linear-gradient-2" x1="132.736303" y1="239.432673" x2="132.736303" y2="158.411397" gradientTransform="translate(.904227 -131.383016) scale(1.61051)" xlink:href="#linear-gradient"/><linearGradient id="linear-gradient-3" x1="138.86015" y1="234.417562" x2="138.86015" y2="153.396286" gradientTransform="translate(-49.932122 -93.059021) scale(1.61051)" xlink:href="#linear-gradient"/><linearGradient id="linear-gradient-4" x1="140.866639" y1="226.760745" x2="140.866639" y2="145.739469" gradientTransform="translate(422.733868 -7.250499) rotate(90) scale(1.61051)" xlink:href="#linear-gradient"/><linearGradient id="linear-gradient-5" x1="137.989358" y1="219.386866" x2="137.989358" y2="138.365589" gradientTransform="translate(369.429841 -32.238168) rotate(90) scale(1.61051)" xlink:href="#linear-gradient"/><linearGradient id="linear-gradient-6" x1="131.327331" y1="215.112495" x2="131.327331" y2="134.091219" gradientTransform="translate(346.440825 -69.824207) rotate(90) scale(1.61051)" xlink:href="#linear-gradient"/><linearGradient id="linear-gradient-7" x1="123.425226" y1="215.570298" x2="123.425226" y2="134.549022" gradientTransform="translate(279.39007 375.060866) rotate(-180) scale(1.61051)" xlink:href="#linear-gradient"/><linearGradient id="linear-gradient-8" x1="117.301379" y1="220.585409" x2="117.301379" y2="139.564133" gradientTransform="translate(310.501384 352.890644) rotate(-180) scale(1.61051)" xlink:href="#linear-gradient"/><linearGradient id="linear-gradient-9" x1="115.29489" y1="228.242226" x2="115.29489" y2="147.22095" gradientTransform="translate(-129.829929 248.175387) rotate(-90) scale(1.61051)" xlink:href="#linear-gradient"/><linearGradient id="linear-gradient-10" x1="118.172171" y1="235.616106" x2="118.172171" y2="154.594829" gradientTransform="translate(-100.277315 282.430835) rotate(-90) scale(1.61051)" xlink:href="#linear-gradient"/><linearGradient id="linear-gradient-11" y1="239.890476" y2="158.8692" xlink:href="#linear-gradient"/><linearGradient id="linear-gradient-12" x1="141.708654" y1="231.072709" x2="141.708654" y2="150.051432" gradientTransform="translate(-59.262018 -63.036658) scale(1.4641)" xlink:href="#linear-gradient"/><linearGradient id="linear-gradient-13" x1="141.205071" y1="222.380393" x2="141.205071" y2="141.359117" gradientTransform="translate(370.348913 -4.745549) rotate(90) scale(1.4641)" xlink:href="#linear-gradient"/><linearGradient id="linear-gradient-14" x1="135.688449" y1="215.644161" x2="135.688449" y2="134.622885" gradientTransform="translate(332.989024 -33.9176) rotate(90) scale(1.4641)" xlink:href="#linear-gradient"/><linearGradient id="linear-gradient-15" x1="127.26595" y1="213.437024" x2="127.26595" y2="132.415748" gradientTransform="translate(262.554645 371.627806) rotate(-180) scale(1.4641)" xlink:href="#linear-gradient"/><linearGradient id="linear-gradient-16" x1="119.154683" y1="216.602033" x2="119.154683" y2="135.580757" gradientTransform="translate(277.607628 338.599586) rotate(-180) scale(1.4641)" xlink:href="#linear-gradient"/><linearGradient id="linear-gradient-17" x1="114.452875" y1="223.930263" x2="114.452875" y2="142.908986" gradientTransform="translate(314.646712 334.687847) rotate(-180) scale(1.4641)" xlink:href="#linear-gradient"/><linearGradient id="linear-gradient-18" x1="114.956458" y1="232.622578" x2="114.956458" y2="151.601302" gradientTransform="translate(-90.054616 248.423399) rotate(-90) scale(1.4641)" xlink:href="#linear-gradient"/><linearGradient id="linear-gradient-19" x1="120.47308" y1="239.35881" x2="120.47308" y2="158.337534" gradientTransform="translate(-72.419762 293.749223) rotate(-90) scale(1.4641)" xlink:href="#linear-gradient"/><linearGradient id="linear-gradient-20" x1="128.895579" y1="241.565947" x2="128.895579" y2="160.544671" gradientTransform="translate(30.349294 -130.702919) scale(1.4641)" xlink:href="#linear-gradient"/><linearGradient id="linear-gradient-21" x1="137.006847" y1="238.400938" x2="137.006847" y2="157.379662" gradientTransform="translate(-8.455102 -88.406919) scale(1.4641)" xlink:href="#linear-gradient"/><linearGradient id="linear-gradient-22" x1="141.708654" y1="231.072709" x2="141.708654" y2="150.051432" gradientTransform="translate(-59.262018 -63.036658) scale(1.4641)" xlink:href="#linear-gradient"/><linearGradient id="linear-gradient-23" x1="132.00911" y1="212.510807" x2="132.00911" y2="131.489531" gradientTransform="translate(308.476213 -34.132919) rotate(90) scale(1.331)" xlink:href="#linear-gradient"/><linearGradient id="linear-gradient-24" x1="122.447563" y1="213.064749" x2="122.447563" y2="132.043472" gradientTransform="translate(255.223943 331.113257) rotate(-180) scale(1.331)" xlink:href="#linear-gradient"/><linearGradient id="linear-gradient-25" x1="115.037708" y1="219.133033" x2="115.037708" y2="138.111756" gradientTransform="translate(279.224096 314.192532) rotate(-180) scale(1.331)" xlink:href="#linear-gradient"/><linearGradient id="linear-gradient-26" x1="112.609857" y1="228.397782" x2="112.609857" y2="147.376505" gradientTransform="translate(-81.880178 226.010331) rotate(-90) scale(1.331)" xlink:href="#linear-gradient"/><linearGradient id="linear-gradient-27" x1="116.091367" y1="237.320176" x2="116.091367" y2="156.298899" gradientTransform="translate(-59.517603 255.124847) rotate(-90) scale(1.331)" xlink:href="#linear-gradient"/><linearGradient id="linear-gradient-28" x1="124.152419" y1="242.492164" x2="124.152419" y2="161.470888" gradientTransform="translate(-53.091519 305.784108) rotate(-90) scale(1.331)" xlink:href="#linear-gradient"/><linearGradient id="linear-gradient-29" x1="133.713966" y1="241.938223" x2="133.713966" y2="160.916946" gradientTransform="translate(25.070354 -87.435407) scale(1.331)" xlink:href="#linear-gradient"/><linearGradient id="linear-gradient-30" x1="141.123821" y1="235.869939" x2="141.123821" y2="154.848662" gradientTransform="translate(-18.654834 -54.360909) scale(1.331)" xlink:href="#linear-gradient"/><linearGradient id="linear-gradient-31" x1="143.551672" y1="226.60519" x2="143.551672" y2="145.583913" gradientTransform="translate(374.784117 14.914557) rotate(90) scale(1.331)" xlink:href="#linear-gradient"/><linearGradient id="linear-gradient-32" x1="140.070162" y1="217.682796" x2="140.070162" y2="136.661519" gradientTransform="translate(328.670129 -4.93218) rotate(90) scale(1.331)" xlink:href="#linear-gradient"/><linearGradient id="linear-gradient-33" x1="132.00911" y1="212.510807" x2="132.00911" y2="131.489531" gradientTransform="translate(308.476213 -34.132919) rotate(90) scale(1.331)" xlink:href="#linear-gradient"/><linearGradient id="linear-gradient-34" x1="111.591018" y1="223.180306" x2="111.591018" y2="142.159029" gradientTransform="translate(282.200087 300.174564) rotate(-180) scale(1.21)" xlink:href="#linear-gradient"/><linearGradient id="linear-gradient-35" x1="112.200354" y1="233.698008" x2="112.200354" y2="152.676731" gradientTransform="translate(-50.102244 226.454193) rotate(-90) scale(1.21)" xlink:href="#linear-gradient"/><linearGradient id="linear-gradient-36" x1="118.875467" y1="241.848848" x2="118.875467" y2="160.827572" gradientTransform="translate(-37.239661 265.315325) rotate(-90) scale(1.21)" xlink:href="#linear-gradient"/><linearGradient id="linear-gradient-37" x1="129.06669" y1="244.519484" x2="129.06669" y2="163.498208" gradientTransform="translate(50.499345 -87.112236) scale(1.21)" xlink:href="#linear-gradient"/><linearGradient id="linear-gradient-38" x1="138.881324" y1="240.689823" x2="138.881324" y2="159.668547" gradientTransform="translate(16.368523 -51.352636) scale(1.21)" xlink:href="#linear-gradient"/><linearGradient id="linear-gradient-39" x1="144.570511" y1="231.822666" x2="144.570511" y2="150.801389" gradientTransform="translate(-26.815393 -28.523375) scale(1.21)" xlink:href="#linear-gradient"/><linearGradient id="linear-gradient-40" x1="143.961175" y1="221.304964" x2="143.961175" y2="140.283687" gradientTransform="translate(330.396541 17.223657) rotate(90) scale(1.21)" xlink:href="#linear-gradient"/><linearGradient id="linear-gradient-41" x1="137.286063" y1="213.154123" x2="137.286063" y2="132.132847" gradientTransform="translate(297.808923 -5.483702) rotate(90) scale(1.21)" xlink:href="#linear-gradient"/><linearGradient id="linear-gradient-42" x1="127.094839" y1="210.483487" x2="127.094839" y2="129.462211" gradientTransform="translate(242.404594 328.037123) rotate(-180) scale(1.21)" xlink:href="#linear-gradient"/><linearGradient id="linear-gradient-43" x1="117.280205" y1="214.313148" x2="117.280205" y2="133.291872" gradientTransform="translate(252.784003 301.545303) rotate(-180) scale(1.21)" xlink:href="#linear-gradient"/><linearGradient id="linear-gradient-44" x1="111.591018" y1="223.180306" x2="111.591018" y2="142.159029" gradientTransform="translate(282.200087 300.174564) rotate(-180) scale(1.21)" xlink:href="#linear-gradient"/><linearGradient id="linear-gradient-45" x1="123.327467" y1="245.640207" x2="123.327467" y2="164.61893" gradientTransform="translate(-21.715807 276.287176) rotate(-90) scale(1.1)" xlink:href="#linear-gradient"/><linearGradient id="linear-gradient-46" x1="134.896938" y1="244.969938" x2="134.896938" y2="163.948661" gradientTransform="translate(45.042359 -51.115068) scale(1.1)" xlink:href="#linear-gradient"/><linearGradient id="linear-gradient-47" x1="143.862863" y1="237.627314" x2="143.862863" y2="156.606037" gradientTransform="translate(7.194164 -22.378999) scale(1.1)" xlink:href="#linear-gradient"/><linearGradient id="linear-gradient-48" x1="146.800563" y1="226.416968" x2="146.800563" y2="145.395691" gradientTransform="translate(335.156224 33.232785) rotate(90) scale(1.1)" xlink:href="#linear-gradient"/><linearGradient id="linear-gradient-49" x1="142.587936" y1="215.620871" x2="142.587936" y2="134.599594" gradientTransform="translate(294.984417 17.634752) rotate(90) scale(1.1)" xlink:href="#linear-gradient"/><linearGradient id="linear-gradient-50" x1="132.834062" y1="209.362765" x2="132.834062" y2="128.341488" gradientTransform="translate(277.100501 -4.635987) rotate(90) scale(1.1)" xlink:href="#linear-gradient"/><linearGradient id="linear-gradient-51" x1="121.264591" y1="210.033034" x2="121.264591" y2="129.011757" gradientTransform="translate(235.251938 294.792918) rotate(-180) scale(1.1)" xlink:href="#linear-gradient"/><linearGradient id="linear-gradient-52" x1="112.298666" y1="217.375658" x2="112.298666" y2="136.354381" gradientTransform="translate(253.375098 282.210622) rotate(-180) scale(1.1)" xlink:href="#linear-gradient"/><linearGradient id="linear-gradient-53" x1="109.360966" y1="228.586004" x2="109.360966" y2="147.564727" gradientTransform="translate(-42.252284 207.692102) rotate(-90) scale(1.1)" xlink:href="#linear-gradient"/><linearGradient id="linear-gradient-54" x1="113.573593" y1="239.382101" x2="113.573593" y2="158.360824" gradientTransform="translate(-25.831891 232.557915) rotate(-90) scale(1.1)" xlink:href="#linear-gradient"/><linearGradient id="linear-gradient-55" x1="123.327467" y1="245.640207" x2="123.327467" y2="164.61893" gradientTransform="translate(-21.715807 276.287176) rotate(-90) scale(1.1)" xlink:href="#linear-gradient"/><linearGradient id="linear-gradient-56" x1="148.033357" y1="232.730113" x2="148.033357" y2="151.708837" gradientTransform="matrix(1,0,0,1,0,0)" xlink:href="#linear-gradient"/><linearGradient id="linear-gradient-57" x1="147.296061" y1="220.003695" x2="147.296061" y2="138.982418" gradientTransform="translate(297.378051 35.380026) rotate(90)" xlink:href="#linear-gradient"/><linearGradient id="linear-gradient-58" x1="139.219175" y1="210.141177" x2="139.219175" y2="129.1199" gradientTransform="translate(268.734459 18.015387) rotate(90)" xlink:href="#linear-gradient"/><linearGradient id="linear-gradient-59" x1="126.887795" y1="206.909708" x2="126.887795" y2="125.888431" gradientTransform="translate(225.751659 292.011766) rotate(-180)" xlink:href="#linear-gradient"/><linearGradient id="linear-gradient-60" x1="115.012088" y1="211.543597" x2="115.012088" y2="130.522321" gradientTransform="translate(232.26861 270.921928) rotate(-180)" xlink:href="#linear-gradient"/><linearGradient id="linear-gradient-61" x1="108.128172" y1="222.272858" x2="108.128172" y2="141.251582" gradientTransform="translate(255.384694 271.651189) rotate(-180)" xlink:href="#linear-gradient"/><linearGradient id="linear-gradient-62" x1="108.865468" y1="234.999277" x2="108.865468" y2="153.978" gradientTransform="translate(-17.083754 208.297824) rotate(-90)" xlink:href="#linear-gradient"/><linearGradient id="linear-gradient-63" x1="116.942354" y1="244.861795" x2="116.942354" y2="163.840518" gradientTransform="translate(-8.165197 241.816236) rotate(-90)" xlink:href="#linear-gradient"/><linearGradient id="linear-gradient-64" x1="129.273735" y1="248.093264" x2="129.273735" y2="167.071987" gradientTransform="translate(67.15228 -51.086878)" xlink:href="#linear-gradient"/><linearGradient id="linear-gradient-65" x1="141.149441" y1="243.459374" x2="141.149441" y2="162.438098" gradientTransform="translate(36.883916 -20.729261)" xlink:href="#linear-gradient"/><linearGradient id="linear-gradient-66" x1="148.033357" y1="232.730113" x2="148.033357" y2="151.708837" gradientTransform="matrix(1,0,0,1,0,0)" xlink:href="#linear-gradient"/></defs><path class="cls-63" d="M230.047091,164.277926c36.032597,0,65.242788-10.677675,65.242788-23.849254,0-13.17158-29.210191-23.849254-65.242788-23.849254-36.032597,0-65.242788,10.677675-65.242788,23.849254,0,13.17158,29.210191,23.849254,65.242788,23.849254Z"/><ellipse class="cls-11" cx="214.67737" cy="188.982911" rx="23.849254" ry="65.242788" transform="translate(-64.397208 251.579184) rotate(-54)"/><ellipse class="cls-32" cx="173.703539" cy="219.23002" rx="23.849254" ry="65.242788" transform="translate(-59.244145 64.407226) rotate(-18)"/><ellipse class="cls-27" cx="122.776208" cy="219.616631" rx="65.242788" ry="23.849254" transform="translate(-124.031555 268.518473) rotate(-72)"/><ellipse class="cls-34" cx="81.347888" cy="189.995073" rx="65.242788" ry="23.849254" transform="translate(-96.140238 84.100919) rotate(-36)"/><ellipse class="cls-55" cx="65.242788" cy="141.679773" rx="65.242788" ry="23.849254"/><ellipse class="cls-50" cx="80.612509" cy="93.125534" rx="23.849254" ry="65.242788" transform="translate(-42.110474 103.604608) rotate(-54)"/><ellipse class="cls-41" cx="121.586341" cy="62.878424" rx="23.849254" ry="65.242788" transform="translate(-13.479643 40.649735) rotate(-18)"/><ellipse class="cls-51" cx="172.513671" cy="62.491813" rx="65.242788" ry="23.849254" transform="translate(59.770769 207.251032) rotate(-72)"/><ellipse class="cls-16" cx="213.941991" cy="92.113371" rx="65.242788" ry="23.849254" transform="translate(-13.283597 143.344036) rotate(-36)"/><ellipse class="cls-53" cx="230.047091" cy="140.428671" rx="65.242788" ry="23.849254"/><path class="cls-17" d="M126.532482,215.965269c0,32.756906,9.706977,59.311626,21.68114,59.311626,11.974163,0,21.68114-26.554719,21.68114-59.311626,0-32.756906-9.706977-59.311626-21.68114-59.311626-11.974163,0-21.68114,26.554719-21.68114,59.311626Z"/><ellipse class="cls-3" cx="104.073405" cy="201.992795" rx="59.311626" ry="21.68114" transform="translate(-120.515012 167.461562) rotate(-54)"/><ellipse class="cls-44" cx="76.576033" cy="164.743858" rx="59.311626" ry="21.68114" transform="translate(-47.160754 31.726434) rotate(-18)"/><ellipse class="cls-2" cx="76.224568" cy="118.446284" rx="21.68114" ry="59.311626" transform="translate(-59.97923 154.338242) rotate(-72)"/><ellipse class="cls-62" cx="103.153257" cy="80.784175" rx="21.68114" ry="59.311626" transform="translate(-27.783228 76.060368) rotate(-36)"/><path class="cls-48" d="M168.757398,66.143175c0-32.756906-9.706977-59.311626-21.68114-59.311626-11.974163,0-21.68114,26.554719-21.68114,59.311626s9.706977,59.311626,21.68114,59.311626,21.68114-26.554719,21.68114-59.311626Z"/><ellipse class="cls-67" cx="191.216475" cy="80.115649" rx="59.311626" ry="21.68114" transform="translate(14.007329 187.72223) rotate(-54)"/><ellipse class="cls-54" cx="218.713847" cy="117.364586" rx="59.311626" ry="21.68114" transform="translate(-25.563034 73.330527) rotate(-18)"/><ellipse class="cls-47" cx="219.065312" cy="163.66216" rx="21.68114" ry="59.311626" transform="translate(-4.281556 321.431263) rotate(-72)"/><ellipse class="cls-57" cx="192.136622" cy="201.324269" rx="21.68114" ry="59.311626" transform="translate(-81.640607 151.384587) rotate(-36)"/><ellipse class="cls-36" cx="148.213622" cy="215.965269" rx="21.68114" ry="59.311626"/><ellipse class="cls-64" cx="79.543988" cy="141.571206" rx="53.91966" ry="19.710128"/><ellipse class="cls-37" cx="92.246237" cy="101.443736" rx="19.710128" ry="53.91966" transform="translate(-44.044447 116.445377) rotate(-54)"/><ellipse class="cls-15" cx="126.108907" cy="76.446125" rx="19.710128" ry="53.91966" transform="translate(-17.450942 42.711335) rotate(-18)"/><ellipse class="cls-26" cx="168.19761" cy="76.126611" rx="53.91966" ry="19.710128" transform="translate(43.820981 212.567628) rotate(-72)"/><ellipse class="cls-19" cx="202.435892" cy="100.607238" rx="53.91966" ry="19.710128" transform="translate(-20.473636 138.203104) rotate(-36)"/><ellipse class="cls-4" cx="215.745892" cy="140.537238" rx="53.91966" ry="19.710128"/><ellipse class="cls-46" cx="203.043643" cy="180.664708" rx="19.710128" ry="53.91966" transform="translate(-62.463235 238.738415) rotate(-54)"/><ellipse class="cls-29" cx="169.180972" cy="205.662319" rx="19.710128" ry="53.91966" transform="translate(-55.272846 62.345626) rotate(-18)"/><ellipse class="cls-65" cx="127.092269" cy="205.981833" rx="53.91966" ry="19.710128" transform="translate(-108.081766 263.201877) rotate(-72)"/><ellipse class="cls-60" cx="92.853988" cy="181.501206" rx="53.91966" ry="19.710128" transform="translate(-88.950198 89.241851) rotate(-36)"/><ellipse class="cls-39" cx="79.543988" cy="141.571206" rx="53.91966" ry="19.710128"/><path class="cls-33" d="M165.093252,79.144266c0-27.071823-8.022295-49.017872-17.918298-49.017872-9.896003,0-17.918298,21.946049-17.918298,49.017872s8.022295,49.017872,17.918298,49.017872c9.896003,0,17.918298-21.946049,17.918298-49.017872Z"/><ellipse class="cls-28" cx="183.654473" cy="90.691765" rx="49.017872" ry="17.918298" transform="translate(2.333903 185.964073) rotate(-54)"/><ellipse class="cls-56" cx="206.379574" cy="121.476011" rx="49.017872" ry="17.918298" transform="translate(-27.437216 69.720255) rotate(-18)"/><ellipse class="cls-20" cx="206.670041" cy="159.738468" rx="17.918298" ry="49.017872" transform="translate(-9.114825 306.931455) rotate(-72)"/><ellipse class="cls-35" cx="184.414925" cy="190.864178" rx="17.918298" ry="49.017872" transform="translate(-76.967032 144.848188) rotate(-36)"/><ellipse class="cls-22" cx="148.114925" cy="202.964178" rx="17.918298" ry="49.017872"/><ellipse class="cls-18" cx="111.635407" cy="191.416679" rx="49.017872" ry="17.918298" transform="translate(-108.841585 169.219719) rotate(-54)"/><ellipse class="cls-61" cx="88.910306" cy="160.632433" rx="49.017872" ry="17.918298" transform="translate(-45.286572 35.336706) rotate(-18)"/><ellipse class="cls-8" cx="88.619839" cy="122.369976" rx="17.918298" ry="49.017872" transform="translate(-55.14596 168.838049) rotate(-72)"/><ellipse class="cls-14" cx="110.874954" cy="91.244266" rx="17.918298" ry="49.017872" transform="translate(-32.456802 82.596767) rotate(-36)"/><ellipse class="cls-30" cx="147.174954" cy="79.144266" rx="17.918298" ry="49.017872"/><path class="cls-58" d="M203.926718,156.916324c24.610749,0,44.561702-7.292996,44.561702-16.289362,0-8.996366-19.950954-16.289362-44.561702-16.289362-24.610749,0-44.561702,7.292996-44.561702,16.289362,0,8.996366,19.950954,16.289362,44.561702,16.289362Z"/><ellipse class="cls-9" cx="193.428992" cy="173.790161" rx="16.289362" ry="44.561702" transform="translate(-60.864911 228.126209) rotate(-54)"/><ellipse class="cls-25" cx="165.443314" cy="194.449344" rx="16.289362" ry="44.561702" transform="translate(-51.99078 60.641824) rotate(-18)"/><ellipse class="cls-59" cx="130.659262" cy="194.713405" rx="44.561702" ry="16.289362" transform="translate(-94.900123 258.807996) rotate(-72)"/><ellipse class="cls-31" cx="102.363161" cy="174.481481" rx="44.561702" ry="16.289362" transform="translate(-83.008017 93.490554) rotate(-36)"/><path class="cls-49" d="M91.363161,125.19212c-24.610749,0-44.561702,7.292996-44.561702,16.289362,0,8.996366,19.950954,16.289362,44.561702,16.289362s44.561702-7.292996,44.561702-16.289362c0-8.996366-19.950954-16.289362-44.561702-16.289362Z"/><ellipse class="cls-40" cx="101.860888" cy="108.318283" rx="16.289362" ry="44.561702" transform="translate(-45.642771 127.057583) rotate(-54)"/><ellipse class="cls-23" cx="129.846566" cy="87.6591" rx="16.289362" ry="44.561702" transform="translate(-20.733008 44.415137) rotate(-18)"/><ellipse class="cls-7" cx="164.630618" cy="87.39504" rx="44.561702" ry="16.289362" transform="translate(30.639337 216.961509) rotate(-72)"/><ellipse class="cls-38" cx="192.926718" cy="107.626963" rx="44.561702" ry="16.289362" transform="translate(-26.415817 133.9544) rotate(-36)"/><ellipse class="cls-21" cx="203.926718" cy="140.626963" rx="44.561702" ry="16.289362"/><path class="cls-13" d="M133.224847,192.219475c0,22.373408,6.629996,40.510638,14.808511,40.510638,8.178515,0,14.808511-18.137231,14.808511-40.510638,0-22.373408-6.629996-40.510638-14.808511-40.510638-8.178515,0-14.808511,18.137231-14.808511,40.510638Z"/><ellipse class="cls-43" cx="117.884995" cy="182.676087" rx="40.510638" ry="14.808511" transform="translate(-99.194126 170.672742) rotate(-54)"/><ellipse class="cls-24" cx="99.10392" cy="157.234562" rx="40.510638" ry="14.808511" transform="translate(-43.737661 38.320403) rotate(-18)"/><ellipse class="cls-52" cx="98.863865" cy="125.612696" rx="14.808511" ry="40.510638" transform="translate(-51.151523 180.821361) rotate(-72)"/><ellipse class="cls-10" cx="117.256522" cy="99.888969" rx="14.808511" ry="40.510638" transform="translate(-36.31926 87.99875) rotate(-36)"/><path class="cls-1" d="M162.065033,89.888969c0-22.373408-6.629996-40.510638-14.808511-40.510638-8.178515,0-14.808511,18.137231-14.808511,40.510638s6.629996,40.510638,14.808511,40.510638,14.808511-18.137231,14.808511-40.510638Z"/><ellipse class="cls-45" cx="177.404884" cy="99.432357" rx="40.510638" ry="14.808511" transform="translate(-7.313557 184.51105) rotate(-54)"/><ellipse class="cls-66" cx="196.185959" cy="124.873882" rx="40.510638" ry="14.808511" transform="translate(-28.986127 66.736558) rotate(-18)"/><ellipse class="cls-12" cx="196.426015" cy="156.495748" rx="14.808511" ry="40.510638" transform="translate(-13.109262 294.948143) rotate(-72)"/><ellipse class="cls-5" cx="178.033357" cy="182.219475" rx="14.808511" ry="40.510638" transform="translate(-73.104574 139.446205) rotate(-36)"/><ellipse class="cls-42" cx="148.033357" cy="192.219475" rx="14.808511" ry="40.510638"/><path class="cls-6" d="M172.371319,138.277458c-.572937-1.763367-1.640015-3.227783-2.997437-4.291382.994263-3.519653-.225525-7.436951-3.357056-9.712097-1.5-1.089844-3.223999-1.647339-4.947327-1.709961-1.264404-3.431885-4.553772-5.884033-8.424561-5.884033-1.854126,0-3.576538.562256-5.007507,1.524597-3.0401-2.033264-7.142639-2.083679-10.274231.191528-1.5,1.089783-2.562988,2.557068-3.15509,4.176758-3.654602.142029-7.003235,2.512695-8.199402,6.194031-.572937,1.763367-.570435,3.575256-.097412,5.233582-2.873169,2.263062-4.188904,6.14917-2.992737,9.830505.572937,1.763367,1.640015,3.227783,2.997437,4.291382-.994202,3.519592.225525,7.43689,3.357056,9.712097,1.5,1.089783,3.223999,1.647278,4.947327,1.7099,1.264404,3.431885,4.553772,5.884094,8.424561,5.884094,1.854126,0,3.576599-.562317,5.007568-1.524597,3.040161,2.033203,7.142639,2.083618,10.27417-.191528,1.5-1.089844,2.563049-2.55719,3.15509-4.176819,3.654602-.141968,7.003174-2.512634,8.199341-6.19397.572937-1.763367.570496-3.575317.097473-5.233643,2.873169-2.263062,4.188904-6.149109,2.992737-9.830444Z"/><path class="cls-6" d="M168.037245,131.800664c-.980825-1.350013-2.301468-2.306711-3.759157-2.839579-.127829-3.28917-2.261368-6.302942-5.574557-7.379429-1.587029-.51568-3.217735-.513398-4.710235-.087715-2.036728-2.585875-5.534245-3.76997-8.84745-2.693444-1.587041.515661-2.904969,1.475953-3.862166,2.697645-3.167658-.894876-6.693251.20295-8.74097,3.02136-.980841,1.349973-1.482632,2.901531-1.538982,4.452578-3.088659,1.13797-5.295606,4.09845-5.29563,7.582165.000013,1.668698.50607,3.21889,1.372159,4.50678-1.829899,2.736142-1.875318,6.428386.172378,9.246755.980825,1.350013,2.301468,2.306711,3.759157,2.839579.127865,3.289101,2.261351,6.30289,5.574557,7.379429,1.587012.515628,3.217718.513345,4.710218.087663,2.036728,2.585875,5.534262,3.770022,8.847466,2.693496,1.587041-.515661,2.905004-1.476023,3.862219-2.697662,3.167693.894807,6.693234-.203002,8.740918-3.021343.980824-1.350026,1.482651-2.901652,1.538965-4.452631,3.088676-1.137918,5.295571-4.098381,5.295595-7.582096-.000013-1.668698-.506034-3.21896-1.372124-4.50685,1.829899-2.736142,1.875335-6.428333-.172361-9.246703Z"/><path class="cls-6" d="M162.526195,127.462219c-1.214997-.882762-2.611475-1.334358-4.007384-1.385061-1.024184-2.779817-3.688565-4.766088-6.823879-4.766059-1.501837-.00002-2.897007.455458-4.056125,1.234908-2.46251-1.646936-5.785528-1.687751-8.32207.155155-1.215016.882761-2.076025,2.07126-2.555568,3.383179-2.960238.115004-5.672651,2.035211-6.641554,5.017133-.464103,1.428298-.4621,2.89591-.078963,4.239203-2.327254,1.83305-3.392937,4.980861-2.424083,7.962757.464102,1.42832,1.328393,2.614466,2.427905,3.475964-.805341,2.850926.182653,6.023937,2.719211,7.866827,1.214997.882762,2.611475,1.334358,4.007384,1.385061,1.024195,2.779748,3.688536,4.766048,6.823879,4.766059,1.501808-.00002,2.896978-.455498,4.056095-1.234948,2.46251,1.646936,5.785557,1.687791,8.322099-.155115,1.215016-.882761,2.076036-2.071329,2.555608-3.383208,2.960249-.115073,5.672622-2.035251,6.641514-5.017104.464074-1.428338.462082-2.896019.078934-4.239243,2.327283-1.83301,3.392926-4.980792,2.424072-7.962687-.464102-1.42832-1.328382-2.614535-2.427894-3.476033.805341-2.850926-.182624-6.023897-2.719182-7.866787Z"/><path class="cls-6" d="M156.602419,125.281431c-1.285488-.417692-2.606399-.415853-3.815331-.071029-1.649761-2.094545-4.482752-3.053691-7.16642-2.181687-1.285504.417667-2.353026,1.195552-3.128396,2.185091-2.565826-.724835-5.421517.164412-7.080132,2.4473-.794485,1.093514-1.200927,2.350271-1.246527,3.606578-2.501834.921726-4.289487,3.319691-4.289503,6.141537-.000018,1.351627.409862,2.607274,1.111399,3.65051-1.482216,2.216246-1.518933,5.207.139668,7.489903.794486,1.093498,1.864162,1.868408,3.044886,2.300017.103554,2.66423,1.831691,5.105395,4.515396,5.977363,1.285488.417692,2.606399.415853,3.815331.071029,1.649751,2.094483,4.482716,3.053665,7.16642,2.181687,1.285468-.417693,2.35299-1.195578,3.12836-2.185117,2.565826.724835,5.421553-.164386,7.080168-2.447274.794485-1.093514,1.200917-2.350333,1.246553-3.606614,2.501824-.921788,4.289451-3.319718,4.289477-6.141501-.000018-1.351653-.409908-2.607363-1.111435-3.650536,1.482252-2.21622,1.518943-5.206938-.139658-7.489841-.794486-1.093498-1.864172-1.86847-3.044896-2.300079-.103554-2.66423-1.831655-5.105369-4.51536-5.977337Z"/><path class="cls-6" d="M150.925448,125.062276c-1.216481-.00001-2.346605.368929-3.28549,1.000304-1.994639-1.334004-4.686294-1.367088-6.740864.125674-.984169.715021-1.681573,1.677746-2.070046,2.740386-2.397809.093172-4.594826,1.648535-5.379614,4.063862-.375917,1.156953-.374288,2.345713-.063922,3.433731-1.885101,1.48475-2.748333,4.034465-1.963548,6.44983.375892,1.156931,1.075944,2.11771,1.966565,2.81556-.652332,2.309224.148014,4.879375,2.202606,6.372145.984159.715022,2.115264,1.080814,3.245943,1.121872.8296,2.25165,2.987726,3.860546,5.527354,3.860529,1.216481.00001,2.346605-.368929,3.28549-1.000304,1.994614,1.333954,4.686256,1.367075,6.740864-.125674.984131-.715033,1.681535-1.677758,2.070008-2.740398,2.397809-.093172,4.594865-1.648523,5.379652-4.063849.375917-1.156953.374262-2.345763.063934-3.43377,1.885075-1.484801,2.748295-4.034477,1.963536-6.449792-.375931-1.156944-1.076008-2.117773-1.966603-2.815573.65237-2.309212-.147988-4.879324-2.20258-6.372095-.984159-.715022-2.11529-1.080864-3.245969-1.121922-.8296-2.25165-2.987688-3.860534-5.527316-3.860516Z"/><path class="cls-6" d="M146.005288,126.453542c-1.04125.338314-1.905974.968412-2.534018,1.769956-2.07832-.587102-4.391445.13317-5.734896,1.982308-.643542.885735-.972737,1.903739-1.009715,2.921347-2.026494.746618-3.474463,2.688957-3.474463,4.974619,0,1.094843.332006,2.11191.900259,2.956883-1.200622,1.795149-1.230392,4.217657.113096,6.066831.643506.885735,1.509923,1.513419,2.466334,1.863049.083867,2.158006,1.483721,4.13534,3.657513,4.841665,1.04125.338314,2.111153.336836,3.090378.057521,1.336315,1.696578,3.631023,2.473506,5.804815,1.767181,1.04125-.338314,1.905974-.968412,2.534018-1.769956,2.078284.587066,4.391409-.13317,5.734896-1.982308.643506-.885735.972701-1.903739,1.009679-2.921347,2.026494-.746618,3.474499-2.688957,3.474499-4.974619,0-1.094843-.332043-2.111946-.900259-2.956919,1.200586-1.795185,1.230356-4.217657-.113096-6.066795-.643542-.885735-1.509995-1.513455-2.46637-1.863049-.083831-2.158006-1.483685-4.135304-3.657477-4.841629-1.04125-.338314-2.111189-.336872-3.090414-.057557-1.336315-1.696578-3.630987-2.473506-5.804779-1.767181Z"/><path class="cls-6" d="M142.180806,129.01277c-.797169.579167-1.36209,1.358994-1.676743,2.219745-1.942222.075482-3.721824,1.335315-4.357479,3.29172-.304504.937124-.303156,1.90004-.051795,2.781347-1.526933,1.202667-2.226129,3.267916-1.590452,5.22433.304493.937132.871536,1.715355,1.592932,2.280571-.528415,1.87047.11984,3.952298,1.784083,5.161455.797146.579177,1.713325.87548,2.629203.908754.67196,1.823822,2.420094,3.127002,4.477193,3.127017.985349-.000008,1.900723-.298829,2.661209-.810246,1.615664,1.080537,3.795897,1.107356,5.460117-.101788.797169-.579167,1.36209-1.358994,1.676743-2.219745,1.942181-.075503,3.721794-1.335305,4.357479-3.29172.304473-.937114.303125-1.90003.051764-2.781337,1.526933-1.202667,2.22616-3.267926,1.590483-5.22434-.304493-.937132-.871577-1.715376-1.592942-2.280602.528374-1.870491-.119871-3.952288-1.784073-5.161424-.797177-.579167-1.713397-.87549-2.629234-.908743-.671929-1.823833-2.420053-3.126982-4.477152-3.126996-.985349.000008-1.900763.298808-2.66125.810225-1.615664-1.080537-3.795867-1.107366-5.460086.101778Z"/><path class="cls-6" d="M139.618998,132.26699c-.521262.717444-.787925,1.54205-.817865,2.36632-1.641454.604771-2.814327,2.17806-2.81431,4.029433-.000012.88682.268943,1.710653.729201,2.395101-.9725,1.454088-.9966,3.416296.091618,4.914099.521261.717455,1.223058,1.225872,1.997733,1.509038.067909,1.747991,1.201772,3.349643,2.962567,3.921771.843396.274048,1.710006.272866,2.503207.046627,1.082398,1.37422,2.941149,2.003495,4.701928,1.431397.843408-.274047,1.543816-.784403,2.052522-1.433654,1.683443.475546,3.557074-.107855,4.645283-1.605667.521262-.717444.787925-1.54205.817865-2.36632,1.641413-.604777,2.814304-2.178043,2.81431-4.029433-.000012-.886802-.268967-1.710636-.729225-2.395084.9725-1.454088.996624-3.416313-.091594-4.914116-.521261-.717455-1.223099-1.225879-1.99775-1.509061-.06795-1.747998-1.201795-3.349626-2.96255-3.921748-.843419-.274031-1.710071-.272855-2.50323-.04661-1.082374-1.374237-2.941108-2.003489-4.701887-1.431391-.843408.274047-1.543857.784396-2.052563,1.433647-1.683443-.475546-3.557051.107837-4.645259,1.60565Z"/><path class="cls-6" d="M138.331264,135.76492c-.246643.759068-.245557,1.539053-.041942,2.252915-1.236808.974167-1.803174,2.64702-1.288265,4.231699.246628.759077.705961,1.389438,1.290274,1.847287-.428008,1.515094.097084,3.201351,1.445106,4.180747.645709.469135,1.387812.709135,2.129648.736062.54427,1.477308,1.960245,2.532899,3.626516,2.532909.798122.000011,1.539569-.242019,2.15559-.65627,1.308671.875233,3.074681.896915,4.422713-.082473.645699-.469136,1.103276-1.100769,1.358137-1.797975,1.573201-.061147,3.014685-1.081595,3.529573-2.666296.246643-.759068.245557-1.539053.041942-2.252915,1.236771-.974161,1.803159-2.646999,1.288265-4.231699-.246644-.759056-.705977-1.389417-1.29029-1.847266.428008-1.515094-.097068-3.201373-1.445091-4.180768-.645709-.469135-1.387848-.709129-2.129669-.736077-.544307-1.477302-1.96026-2.532878-3.626495-2.532893-.798138.00001-1.539622.242046-2.155605.656291-1.308656-.875255-3.074645-.896921-4.422676.082467-.645699.469136-1.103313,1.100775-1.358174,1.797981-1.573201.061147-3.014669,1.081574-3.529558,2.666275Z"/><path class="cls-6" d="M138.201855,139.117115c-.000006.71832.217849,1.385647.59067,1.940049-.787716,1.177815-.807251,2.76721.074209,3.980413.422213.581142.990692.992952,1.61817,1.222342.055017,1.415882.973444,2.713199,2.39967,3.176608.683169.221975,1.38512.221013,2.027584.037745.87673,1.113133,2.382311,1.622863,3.80856,1.159456.683156-.221961,1.250486-.635334,1.66256-1.161237,1.363574.385195,2.881222-.087401,3.762688-1.300617.422213-.581136.63821-1.249042.662454-1.916697,1.329577-.48987,2.279614-1.764222,2.279603-3.263847.000006-.71832-.217849-1.385647-.59067-1.940049.787686-1.177799.807244-2.767187-.074209-3.980413-.42222-.581119-.990699-.99293-1.618178-1.222319-.055017-1.415882-.973436-2.713222-2.399662-3.17663-.683169-.221975-1.38515-.220998-2.027607-.037752-.87676-1.113118-2.382318-1.622841-3.808538-1.159448-.683164.221983-1.250524.635372-1.662567,1.16126-1.363567-.385218-2.881192.087386-3.762658,1.300601-.422213.581136-.638239,1.249058-.662484,1.916712-1.329577.48987-2.279607,1.7642-2.279596,3.263825Z"/><path class="cls-6" d="M139.023384,142.02242c.199771.614848.571838,1.125458,1.045141,1.496312-.346678,1.227227.078636,2.593104,1.170533,3.386399.523018.380005,1.124139.574392,1.725026.596227.440871,1.196624,1.587802,2.051636,2.937463,2.051636.646494,0,1.247062-.196046,1.74601-.531594,1.060017.708955,2.490484.726534,3.582403-.066782.523018-.379984.893659-.891594,1.100112-1.456345,1.274281-.049522,2.441877-.876123,2.858955-2.159725.199771-.614848.198898-1.246615.033966-1.824837,1.001812-.789081,1.46058-2.144083,1.043503-3.427685-.199771-.614848-.571838-1.125458-1.045141-1.496312.346657-1.227206-.078636-2.593083-1.170533-3.386399-.523018-.379984-1.124139-.57437-1.725026-.596205-.440871-1.196624-1.587802-2.051657-2.937463-2.051657-.646494,0-1.247083.196068-1.746031.531594-1.060039-.708934-2.490484-.726513-3.582382.066782-.523018.380005-.89368.891637-1.100112,1.456367-1.274281.049501-2.441856.876101-2.858933,2.159704-.199771.614848-.19892,1.246636-.033987,1.824858-1.001812.789081-1.46058,2.144062-1.043503,3.427664Z"/></svg>