<?xml version="1.0" encoding="UTF-8"?><svg id="Layer_1" xmlns="http://www.w3.org/2000/svg" viewBox="0 0 149.839109 145.515039"><defs><style>.cls-1,.cls-2{fill:#fff;}.cls-3{fill:#61cdf6;}.cls-2{stroke:#f9f399;stroke-miterlimit:10;stroke-width:8px;}</style></defs><path class="cls-3" d="M149.789376,54.39611s4.607345,64.822319-74.869822,24.32668C115.415194-.754377,149.789376,54.39611,149.789376,54.39611Z"/><path class="cls-3" d="M121.191649,142.410864s-60.225941,24.413044-46.272095-63.688074c88.101118,13.953846,46.272095,63.688074,46.272095,63.688074Z"/><path class="cls-3" d="M28.64746,142.410864s-41.829023-49.734228,46.272095-63.688074c13.953846,88.101118-46.272095,63.688074-46.272095,63.688074Z"/><path class="cls-3" d="M.049733,54.39611S34.423916-.754377,74.919555,78.722789C-4.557612,119.218428.049733,54.39611.049733,54.39611Z"/><path class="cls-3" d="M74.919555,0s63.073437,15.649353,0,78.722789C11.846118,15.649353,74.919555,0,74.919555,0Z"/><polygon class="cls-1" points="48.182709 42.113744 72.61472 80.588416 77.224389 77.239295 48.182709 42.113744"/><polygon class="cls-1" points="101.6564 42.113744 72.61472 77.239295 77.224389 80.588416 101.6564 42.113744"/><polygon class="cls-1" points="118.18068 92.970247 75.799923 76.20436 74.039186 81.623351 118.18068 92.970247"/><polygon class="cls-1" points="74.919555 124.401295 77.768487 78.913856 72.070622 78.913856 74.919555 124.401295"/><polygon class="cls-1" points="31.658429 92.970247 75.799923 81.623351 74.039186 76.20436 31.658429 92.970247"/><polygon class="cls-1" points="31.684784 64.183136 73.454595 82.417895 75.403381 77.063654 31.684784 64.183136"/><polygon class="cls-1" points="76.016495 34.281046 71.581791 79.641347 77.276185 79.840202 76.016495 34.281046"/><polygon class="cls-1" points="118.154326 67.202755 73.643717 77.002204 75.214259 82.479344 118.154326 67.202755"/><polygon class="cls-1" points="99.865226 117.451581 76.790861 78.147672 72.067115 81.333876 99.865226 117.451581"/><polygon class="cls-1" points="46.42411 115.585354 76.673977 81.494753 72.183999 77.986795 46.42411 115.585354"/><circle class="cls-2" cx="74.919555" cy="79.384507" r="16.348516"/></svg>