<?xml version="1.0" encoding="UTF-8"?><svg id="Layer_1" xmlns="http://www.w3.org/2000/svg" viewBox="0 0 173 262.929688"><defs><style>.cls-1{fill:#231f20;stroke:#000;}.cls-1,.cls-2{stroke-miterlimit:10;}.cls-3,.cls-4,.cls-2{fill:#fff;}.cls-5{letter-spacing:-.06982em;}.cls-4{font-family:BernardMT-Condensed, 'Bernard MT Condensed';font-size:94.933571px;}.cls-6{fill:#61cdf6;}.cls-2{stroke:#f9f399;stroke-width:8px;}</style></defs><rect class="cls-1" x=".5" y=".5" width="172" height="256"/><path class="cls-6" d="M161.369822,67.13859s4.607345,64.822319-74.869822,24.32668c40.495639-79.477167,74.869822-24.32668,74.869822-24.32668Z"/><path class="cls-6" d="M132.772095,155.153344s-60.225941,24.413044-46.272095-63.688074c88.101118,13.953846,46.272095,63.688074,46.272095,63.688074Z"/><path class="cls-6" d="M40.227905,155.153344S-1.601118,105.419116,86.5,91.46527c13.953846,88.101118-46.272095,63.688074-46.272095,63.688074Z"/><path class="cls-6" d="M11.630178,67.13859s34.374183-55.150487,74.869822,24.32668C7.022833,131.960909,11.630178,67.13859,11.630178,67.13859Z"/><path class="cls-6" d="M86.5,12.74248s63.073437,15.649353,0,78.722789c-63.073437-63.073437,0-78.722789,0-78.722789Z"/><polygon class="cls-3" points="59.763154 54.856225 84.195165 93.330897 88.804835 89.981776 59.763154 54.856225"/><polygon class="cls-3" points="113.236846 54.856225 84.195165 89.981776 88.804835 93.330897 113.236846 54.856225"/><polygon class="cls-3" points="129.761125 105.712728 87.380369 88.94684 85.619631 94.365832 129.761125 105.712728"/><polygon class="cls-3" points="86.5 137.143775 89.348932 91.656336 83.651068 91.656336 86.5 137.143775"/><polygon class="cls-3" points="43.238875 105.712728 87.380369 94.365832 85.619631 88.94684 43.238875 105.712728"/><polygon class="cls-3" points="43.265229 76.925617 85.03504 95.160375 86.983827 89.806134 43.265229 76.925617"/><polygon class="cls-3" points="87.596941 47.023526 83.162236 92.383827 88.85663 92.582682 87.596941 47.023526"/><polygon class="cls-3" points="129.734771 79.945235 85.224162 89.744685 86.794704 95.221824 129.734771 79.945235"/><polygon class="cls-3" points="111.445671 130.194061 88.371306 90.890153 83.647561 94.076356 111.445671 130.194061"/><polygon class="cls-3" points="58.004555 128.327834 88.254422 94.237233 83.764445 90.729276 58.004555 128.327834"/><circle class="cls-2" cx="86.5" cy="92.126987" r="16.348516"/><text class="cls-4" transform="translate(13.581178 241.514044) scale(.59596 1)"><tspan x="0" y="0">DE</tspan><tspan class="cls-5" x="90.946845" y="0">A</tspan><tspan x="129.791569" y="0">TH!</tspan></text></svg>