<?xml version="1.0" encoding="UTF-8"?><svg id="Layer_2" xmlns="http://www.w3.org/2000/svg" viewBox="0 0 461.630604 360.237323"><defs><style>.cls-1{fill:#fcf9ca;}</style></defs><g id="Capa_1"><path class="cls-1" d="M4.394805,266.493574c.011307.011314.022615.011314.035538.025856.875519.633214,1.788191,1.190511,2.725094,1.665434,5.422727,2.747715,10.869684,5.484117,16.342486,8.134891.024231.011314.037153.011314.04846.025856.411914.158316.825443.327921,1.242204.486212,9.701787,3.794453,19.382571,7.743994,28.720907,12.342893.109845.046856.218069.096917.327914.147002,10.40931,4.789504,20.986616,9.325402,29.047204,18.03053.802831.864218,1.592734,1.715495,2.395565,2.579713.011307.011314.022615.035543.048458.046856,12.486647,11.150754,22.933108,24.356213,34.532929,36.660334,11.86797,12.573872,26.84872,15.856282,42.874594,12.184577,13.619007-3.112781,26.750176-8.378834,40.102662-12.683704-.037157-.437753-.072688-.862591-.109845-1.301971-9.837482-4.022203-19.941486-7.525906-29.449433-12.231408-24.535542-12.142576-47.215031-27.415704-66.946527-46.455828-8.868263-8.558126-17.111396-17.763984-24.632459-27.528766-7.609907-9.881097-13.811233-20.561784-20.776619-30.866092-1.894805-2.809089-3.889762-6.225562-8.280278-4.766902-12.706337,4.195062-25.315752,8.621127-36.405123,16.379638-6.128634,4.280665-12.231423,8.425666-15.722192,15.454047-.011307.011314-.011307.025856-.011307.037145-.681677,2.274419-.71883,4.679671.169612,6.870089.775373,1.881822,2.150035,3.439001,3.720155,4.763599Z"/><path class="cls-1" d="M69.347991,151.563101c.692986.339234,1.471582.644528,2.237256.717215,6.663315.668757,13.362166,1.070967,20.001252,1.957812,6.005865.814132,11.964887,2.0305,17.899685,3.282386,4.144989.888447,8.207591,2.153248,12.851719,3.392243-.182533-1.665434-.134074-2.444024-.365066-3.112781-6.178705-17.891613-13.649695-35.473051-17.733297-54.014047-1.082281-4.910663-1.885112-10.239693.209991-14.811133,2.663714-5.807182,9.485332-8.784274,15.87727-8.779418,6.196477.006458,11.564278,4.275834,17.604078,4.109446,6.081788-.16799,11.659593-5.046351,14.654444-9.995786,4.027071-6.656857,5.464731-14.55107,8.808503-21.574607,4.312979-9.055651,12.047274-16.274637,21.101298-20.481012,11.51582-5.35003,18.812349-2.870476,30.555943-1.935185,4.603755.36668,9.449802-.419994,13.213568-3.098238,16.014573-11.397903-4.564983-19.68141-13.63355-23.107569-15.24567-5.761952-32.607444-5.178811-47.938717-.058151-20.540784,6.860384-37.87993,21.052846-52.666847,36.873572-14.786904,15.820727-27.478705,33.484565-41.973232,49.576681-5.42111,6.020402-11.17014,11.922886-14.880592,19.124112-7.773072,15.088969-1.009605,34.361698,14.176293,41.93446Z"/><path class="cls-1" d="M201.725841,45.303827c-10.918149.085616-20.999538,3.831611-27.297787,12.620728-7.162455,10.007087-9.776096,12.851719.340836,22.03336,3.587691,3.233927,7.684209,5.910557,11.538435,8.840805-.098531.255221-.206762.508839-.316607.765674-7.588907-1.689651-15.174584-3.380929-23.114027-5.131967-1.762351,2.138718-3.926913,4.789504-6.516313,7.939442,15.295743,3.96407,28.950293,10.0184,45.220074,12.464039-1.751038-4.267749-2.759016-7.162455-4.085217-9.908555-3.938227-8.220506-5.20304-16.415181,1.119438-23.929786,2.844632-3.380929,6.272406-6.600314,10.07816-8.742273,7.818284-4.388908,16.074345-8.01213,24.706761-12.22012-1.615349-.815747-3.038466-1.652506-4.535898-2.274407-8.776189-3.611908-18.028903-2.516712-27.137857-2.45694Z"/><path class="cls-1" d="M285.467145,55.834283c-.022627-.011314-.035543-.025844-.059772-.025844-4.490668-.003229-8.952252.801217-13.525319.860976-5.383946.071073-10.766291-.324679-16.147033-.067844-15.009835.717215-33.037112,6.301478-44.75808,16.04526-3.193553,2.655629-5.836254,6.170633-6.671387,10.239693-1.08551,5.291885,1.116209,10.937534,4.954265,14.741675,8.068661,7.999214,21.24183,8.147819,31.733539,6.46624,3.180613-.508839,6.545398-1.444118,8.575897-3.944685,2.292191-2.823632,2.172646-7.207684.019374-10.139547-2.153248-2.930248-6.023643-4.363052-9.635551-3.9366-5.904099.694601-8.829503,5.183655-11.918055,9.637178-.836759-1.982029-.557297-4.306521.360234-6.249791.917507-1.944884,2.414939-3.557004,4.020601-4.988194,4.235436-3.776682,9.396488-6.506626,14.904834-7.887755,3.799309-.951436,8.04766-1.205054,11.422132.780216,2.532856,1.489347,4.30975,4.196676,4.671587,7.110767.452296,3.644222-1.826954,7.506532-3.380929,10.617686-.011314.025844-.011314.035543-.011314.048458-.048458,1.715495,1.227656,2.017572,2.846234,1.739737.011314,0,.035543-.011314.072688-.025844.011314.011314.025856-.011314.035543-.011314,6.558313-2.490868,12.827478-5.673108,19.204872-8.574271,4.235436-1.927113,14.78529-4.204748,10.396394-11.06191-.830302-1.297128-1.980415-2.35195-2.965778-3.534389-2.033729-2.440795-3.316302-5.474418-3.754079-8.614657-.143773-1.041895.19869-2.902778.386066-4.702286.201943-1.964245.222944-3.85743-.776963-4.522958Z"/><path class="cls-1" d="M163.679535,175.105206c-.82706,4.02383-1.301971,7.574364,3.271084,10.651602,7.514604,5.070568,14.470297,11.015066,21.387218,16.925622,4.731359,4.038373,5.59395,3.757308,9.800325-.814132,6.603543-7.16084,13.594791-14.030929,20.901006-20.476156,8.814961-7.758511,18.444054-14.602745,27.126555-22.493741,6.991235-6.335394,13.205483-13.559235,19.587734-20.535928,10.322079-11.320359,18.943206-23.818314,25.157454-37.862159,1.39243-3.146697,1.311658-6.705316,1.620205-10.074931-.252004,2.74286-14.815977,8.81819-17.331086,10.03616-6.36125,3.077238-12.961564,5.66018-19.712109,7.750439-13.528548,4.18376-27.664479,6.370925-41.821386,6.561554-29.583495.400608-53.209602-8.887649-78.538263-22.471126-5.459875-2.930248-13.946928-.424838-16.025874,4.837975-2.103188,5.35003-2.759016,10.992451-.923977,16.586413,2.444024,7.440302,5.09481,14.798205,7.635751,22.190049,3.296928,9.63072,6.542169,19.285645,9.873013,28.903449.292378.839988.789903,1.847955,1.508733,2.274419,6.055944,3.574763,12.182962,7.039694,18.872121,10.871292,4.996278-21.837899-4.426053-38.897608-15.429817-55.726313,6.177091,3.902684,11.903513,8.000829,17.276158,12.523811,7.382145,6.225562,10.675844,14.43314,9.436874,24.002461-.715638,5.505093-2.563593,10.866437-3.671717,16.33924ZM135.919753,104.69052c3.099853,1.227669,6.482397,2.017572,9.241413,3.779911,14.651215,9.338342,29.91303,16.925622,46.898424,21.375917,15.273128,4.012517,30.496171,4.377607,45.888844,2.747715,6.430709-.681673,12.743476-2.481169,20.014174-3.964058-3.502076,8.535499-10.236476,12.536727-16.730161,15.042125-8.876335,3.440701-18.71383,6.467854-28.039232,6.177103-15.819112-.486212-30.89678-4.645755-43.250973-16.355409-10.637072-10.091101-22.603586-18.797831-34.022488-28.803303Z"/><path class="cls-1" d="M209.166131,212.658843c.098544-.074315.192232-.151833.287522-.232606,2.119332-1.762351,3.658765-4.497126,5.406573-6.608399,6.622941-8.012142,14.098761-15.917656,22.618116-21.933214,7.508134-5.29997,16.904622-8.298037,25.181684-12.494726,17.804382-9.024964,35.106384-20.492326,46.110136-37.560094,7.900683-12.257264,12.018201-26.570873,14.757832-40.892565,1.419888-7.414446,2.473109-15.2182.138918-22.398426-2.200105-6.755388-17.799527-20.918765-24.680929-12.296036-4.417981,5.535804,3.012635,16.691402,3.464931,22.658502.890049,11.788812-1.98527,23.79894-7.267444,34.313239-8.361038,16.636473-22.101217,29.906585-36.332438,41.910243-10.714603,9.036253-21.889587,17.558836-32.030748,27.259015-8.768105,8.385268-20.26778,17.752695-21.824984,30.625402.092086-.688155,3.558619-1.87704,4.170832-2.350336Z"/><path class="cls-1" d="M216.864895,224.166578c16.101803,8.451498,32.660733,15.962885,49.285918,23.401561,5.488948,2.45694,11.573965,4.348522,17.568548,4.82342,5.753868.457151,11.426987-.387693,16.416783-3.285614,6.94115-4.031915,11.30907-11.355902,14.370139-18.776806,4.870276-11.80174,7.088152-24.6567,6.658459-37.406634-.30692-9.108941-1.366574-28.97451-9.283401-35.243699-3.500473-2.770318-4.602128-.033916-8.254435,2.668545-13.649695,10.095932-29.796727,15.977428-45.087627,23.033267-6.390311,2.949634-56.076837,33.269743-41.674384,40.785961Z"/><path class="cls-1" d="M84.571041,184.727841c12.262114,2.770318,24.419233,6.215875,36.031982,11.07644,5.849182,2.44888,11.549748,5.25474,16.999937,8.499956,5.337115,3.175782,9.299571,7.327216,13.942072,11.399529.877133.768903,2.666943,1.560433,1.310043,2.539339-.715601.516924-9.181641-4.028686-10.375381-4.521355-3.632921-1.50389-7.2933-2.936694-10.979523-4.300063-7.374072-2.726715-14.85152-5.169112-22.412968-7.322385-14.570449-4.149832-29.271744-6.768316-44.200794-9.036253-2.689558-.407066-8.304508-.258462-10.540155-2.043416.121152.730131.146996,1.154969.268149,1.471576.022615.048458.048458.096917.072688.147002,6.742467,13.463945,16.413561,25.616208,25.696974,37.346862,9.084724,11.478675,18.801048,22.459824,29.084361,32.880423,10.491697,10.633855,21.572992,20.682931,33.179271,30.087503,5.862098,4.750732,11.859897,9.336716,17.980445,13.753094,5.839483,4.209604,11.827584,7.504905,17.889986,11.234731,12.620728,7.758536,26.347966,13.131169,40.648646,16.949876,31.316761,8.393377,77.997135-4.224122,94.190999-34.615316,3.587679-6.7344,7.262613-26.356026-1.035449-32.106665-.999906-.692986-2.172646-1.184054-3.540847-1.426346-63.16176-11.225069-113.345811-44.909938-165.636279-80.297386-6.261092-3.647451-12.656258-7.059067-19.222656-10.158933-13.921084-6.574482-28.706368-11.543278-43.987575-13.673924-14.515527-2.022415-29.326663-2.085416-43.346276,2.768716-5.052812,1.749411-8.26251,3.426159-11.622436,7.46776,9.220413,3.232325,19.873642,4.203146,29.484964,5.962244,10.062034,1.841448,20.135351,3.661944,30.119823,5.91699Z"/><path class="cls-1" d="M449.9856,189.791952c-6.895945-9.982845-16.331155-17.279399-25.693752-24.706761-8.837588-7.012236-28.060232-21.10937-39.50822-13.975988-5.516406,3.439075-8.90542,9.360945-12.066659,15.042125-4.42121,7.93943-48.13578,92.40119-53.007683,90.008853,15.528361,7.684222,16.634871,21.036683,11.817884,36.35504,1.192138-.158316,1.667036-.13246,2.054729-.292378,17.641236-7.076839,30.812778-20.377637,44.99071-32.306981,7.551762-6.36125,15.185898-12.657873,23.175413-18.434368,16.195467-11.685425,34.192105-19.82034,53.259662-25.679209,6.821606-2.091874,8.388497-6.080186,4.631213-12.208806-2.918897-4.77819-6.456516-9.180002-9.653298-13.801528Z"/><path class="cls-1" d="M251.711215,38.388521c8.613042.293992,20.432554-.557297,22.004275-.936905,10.74529-2.605556,19.71694-8.889263,30.822465-10.656458,12.938937-2.056344,26.196108-.73983,37.61824,6.043016,10.115305,6.007486,20.038403,12.365495,29.997019,18.628202.97405.608985,1.629892,1.67835,3.429388,3.587691-4.560127-.82706-7.855453-.996665-10.845461-2.054729-9.144484-3.245241-17.983674-7.525906-27.326847-10.021629-5.757097-1.532962-11.958429-.356993-17.815696-.261691.586382,2.977092,2.351938,4.132061,4.447066,6.303093,2.43271,2.519941,4.602128,5.2935,6.469481,8.256049,3.73791,5.923485,6.278851,12.611029,7.330445,19.539263,1.119426,7.374072.542755,14.982365-1.570119,22.131892-2.219478,7.500062-6.52277,14.111677-9.478862,21.316145-2.259877,5.508346-4.579525,11.003752-6.341852,16.670389-3.187095,10.176704.347294,19.455274,4.590814,28.525443.77859,1.652494,1.763953,3.222613,2.712172,4.938133,2.684714-7.71168,4.6409-15.056667,8.635645-22.299882,3.988287-7.233528,8.714815-14.019616,13.216797-20.933308,7.416073-11.391445,14.397597-23.648709,15.769027-37.1708.541153-5.324187,1.599204-11.412445,8.202747-11.772667,1.805954,5.787796,3.469762,11.54329,3.469762,17.667079.037145.232606.048458.474911.072688.705902,1.511974,14.344307-11.147525,25.688896-18.49414,36.513356-8.249579,12.158721-15.307044,25.184913-20.319467,39.018754-.701071,1.935185-1.361743,3.884913-1.980415,5.845954-2.56517,8.147831-4.390522,16.508869-5.836267,24.921595-.738216,4.296834-1.376285,8.608187-1.967499,12.926021-.495923,3.619993-2.225961,9.113797-1.453804,12.604559,1.182427-.232606,2.106417-2.557086,2.592628-3.66362,3.161239-7.186696,5.836267-14.628601,9.48532-21.558437,8.230205-15.676966,16.586413-31.29093,24.939367-46.89681,8.222121-15.358732,18.946435-28.917992,28.52707-43.40765,9.845554-14.890291,18.242136-31.618838,18.5022-49.46845.261691-17.851226-9.595177-36.821879-26.557945-42.38837-23.230329-7.626064-48.788392-12.985793-73.17369-14.689987-25.138056-1.755887-62.252313-1.280971-68.788024,29.803185-.306871,1.437684,3.791274,2.056368,9.115473,2.235672Z"/></g></svg>